<svg id="Capa_1" enable-background="new 0 0 503.617 503.617" height="512" viewBox="0 0 503.617 503.617" width="512" xmlns="http://www.w3.org/2000/svg"><g id="XMLID_3545_"><g id="XMLID_3733_"><path id="XMLID_227_" d="m53.406 60.43h15.323v15h-15.323z"/><path id="XMLID_226_" d="m84.052 60.43h15.323v15h-15.323z"/><path id="XMLID_225_" d="m114.699 60.43h15.323v15h-15.323z"/></g><g id="XMLID_201_"><path id="XMLID_202_" d="m125.042 148.764h15.195v15h-15.195z"/><path id="XMLID_229_" d="m336.66 118.118h-91.939v-61.293h-61.293v-30.646h-183.428v83.502h183.428v-37.856h46.293v111.191h-46.293v-34.251h-27.93v15h12.93v53.503h-153.428v-53.503h94.591v-15h-109.591v83.503h183.428v-34.251h61.293v-64.898h76.939v230.044h-76.939v-63.095h-61.293v-28.718h-183.428v83.502h33.103v-15h-18.103v-53.502h153.428v53.502h-120.13v15h135.13v-39.786h46.293v111.19h-46.293v-32.321h-183.428v83.502h183.428v-36.182h61.293v-63.095h91.939v-116.5h23.146v-15h-23.146zm-168.232-23.437h-153.428v-53.502h153.428zm0 367.757h-153.428v-53.502h153.428z"/><path id="XMLID_233_" d="m503.617 236.156-50.431-7.328-22.553-45.698-22.553 45.698-50.431 7.328 36.492 35.57-8.615 50.227 45.106-23.714 45.106 23.714-8.614-50.227zm-72.983 45.137-25.185 13.24 4.811-28.042-20.375-19.86 28.157-4.092 12.592-25.514 12.592 25.514 28.157 4.092-20.374 19.86 4.81 28.043z"/><path id="XMLID_234_" d="m53.406 183.016h76.616v15h-76.616z"/><path id="XMLID_235_" d="m53.406 428.187h15.323v15h-15.323z"/><path id="XMLID_236_" d="m84.052 428.187h15.323v15h-15.323z"/><path id="XMLID_237_" d="m114.699 428.187h15.323v15h-15.323z"/><path id="XMLID_238_" d="m53.406 305.602h76.616v15h-76.616z"/></g></g></svg>